<svg xmlns="http://www.w3.org/2000/svg" xmlns:xlink="http://www.w3.org/1999/xlink" width="251" height="29" viewBox="0 0 251 29">
    <defs>
        <path id="a" d="M.478 14.286H126.22V.991H.478z"/>
        <path id="c" d="M.478 14.286H126.22V.991H.478z"/>
        <path id="e" d="M.478 14.286H126.22V.991H.478z"/>
        <path id="g" d="M.478 14.286H126.22V.991H.478z"/>
        <path id="i" d="M.478 14.286H126.22V.991H.478z"/>
        <path id="k" d="M.066 23.94H38.61V.261H.066z"/>
    </defs>
    <g fill="none" fill-rule="evenodd">
        <g transform="translate(124 13)">
            <path fill="#000" fill-rule="nonzero" d="M2.19 6.984h3.03c0-1.076-.552-1.774-1.472-1.774-.92 0-1.416.756-1.557 1.774zm1.502 4.8c-2.138 0-3.214-1.658-3.214-4 0-2.4 1.33-3.913 3.256-3.913 2.095 0 3.143 1.484 3.143 3.811 0 .117 0 .262-.014.48h-4.7c.07 1.353.51 2.211 1.656 2.211.779 0 1.316-.363 1.727-1.178l1.303.684c-.78 1.44-1.898 1.905-3.157 1.905zm8.298-5.73c-.425-.655-.892-.859-1.5-.859-.624 0-.992.305-.992.814 0 1.455 3.922.48 3.922 3.419 0 1.513-1.161 2.356-2.874 2.356-1.402 0-2.223-.465-2.959-1.527l1.232-.873c.51.742.906 1.077 1.741 1.077.765 0 1.19-.35 1.19-.902 0-1.615-3.894-.538-3.894-3.448 0-1.338 1.09-2.24 2.633-2.24 1.246 0 2.096.393 2.69 1.426l-1.189.756zm6.529 0c-.425-.655-.892-.859-1.501-.859-.623 0-.991.305-.991.814 0 1.455 3.922.48 3.922 3.419 0 1.513-1.161 2.356-2.874 2.356-1.402 0-2.223-.465-2.96-1.527l1.233-.873c.51.742.906 1.077 1.74 1.077.765 0 1.19-.35 1.19-.902 0-1.615-3.893-.538-3.893-3.448 0-1.338 1.09-2.24 2.633-2.24 1.246 0 2.095.393 2.69 1.426l-1.19.756zm3.925.93h3.03c0-1.076-.552-1.774-1.473-1.774-.92 0-1.415.756-1.557 1.774zm1.5 4.8c-2.137 0-3.213-1.658-3.213-4 0-2.4 1.33-3.913 3.256-3.913 2.095 0 3.143 1.484 3.143 3.811 0 .117 0 .262-.014.48h-4.7c.07 1.353.51 2.211 1.656 2.211.779 0 1.317-.363 1.727-1.178l1.303.684c-.779 1.44-1.897 1.905-3.157 1.905zm8.803-.174V6.606c0-.844-.354-1.222-1.019-1.222-.496 0-.991.218-1.628.844v5.382h-1.713V4.046h1.585v.93c.793-.741 1.543-1.105 2.421-1.105.85 0 1.444.335 1.77.931.212.378.311.873.311 1.804v5.004h-1.727zm6.922-.015c-.41.073-.835.131-1.302.131-1.402 0-1.94-.523-1.94-2.21V5.412h-1.075V4.046h1.076V1.529h1.727v2.517h1.514v1.367h-1.514v3.971c0 .611.212.873.722.873.255 0 .51-.029.792-.102v1.44z"/>
            <mask id="b" fill="#fff">
                <use xlink:href="#a"/>
            </mask>
            <path fill="#000" fill-rule="nonzero" d="M40.75 11.61h1.714V4.046H40.75v7.564zm-.042-8.772h1.812V1.064h-1.812v1.774zm7.21 4.932c-1.033.218-1.586.363-2.053.625-.368.218-.552.597-.552 1.062 0 .597.354.945.92.945.61 0 1.246-.305 1.685-.814V7.77zm.184 3.84l-.127-.844c-.708.611-1.515.99-2.421.99-1.232 0-1.996-.786-1.996-2.052 0-.974.41-1.629 1.217-2.095.736-.421 1.87-.697 3.2-.96.085-1.018-.255-1.44-1.204-1.44-.75 0-1.245.32-1.656.99l-1.232-.786c.652-1.12 1.685-1.542 3.002-1.542 1.897 0 2.775.858 2.775 2.648v3.723l.127 1.368h-1.685z" mask="url(#b)"/>
            <mask id="d" fill="#fff">
                <use xlink:href="#c"/>
            </mask>
            <path fill="#000" fill-rule="nonzero" d="M51.232 11.61h1.713V1.165h-1.713z" mask="url(#d)"/>
            <mask id="f" fill="#fff">
                <use xlink:href="#e"/>
            </mask>
            <path fill="#000" fill-rule="nonzero" d="M58.763 11.61V5.413h-1.09V4.046h1.09v-.713c0-1.586.694-2.342 2.407-2.342.283 0 .566.015.863.058v1.382a2.764 2.764 0 0 0-.58-.073c-.567 0-.977.175-.977.931v.757h1.529v1.367h-1.53v6.197h-1.712zm8.532-3.753c0-1.47-.439-2.59-1.529-2.59-1.104 0-1.543 1.12-1.543 2.59 0 1.513.467 2.53 1.543 2.53 1.062 0 1.529-1.017 1.529-2.53zm-4.828 0c0-2.502 1.246-3.986 3.299-3.986 2.039 0 3.285 1.484 3.285 3.986 0 2.444-1.246 3.927-3.285 3.927-2.053 0-3.299-1.483-3.299-3.927zm7.836 3.753V4.046h1.585v1.382c.524-1.019 1.204-1.557 2.124-1.557.085 0 .128 0 .227.015v1.658c-.128-.015-.213-.015-.27-.015-.863 0-1.486.582-1.953 1.484v4.597h-1.713zm10.25-2.095c.339.495.92.8 1.5.8 1.048 0 1.642-.945 1.642-2.545 0-1.513-.637-2.4-1.642-2.4-.552 0-1.09.305-1.5.843v3.302zm-1.714 2.095V1.166h1.713v3.65c.651-.625 1.289-.887 2.01-.887 1.756 0 2.889 1.499 2.889 3.913 0 2.313-.991 3.943-2.874 3.943-.935 0-1.501-.32-2.18-1.004l-.241.829h-1.317zm11.764-3.84c-1.034.218-1.586.363-2.053.625-.368.218-.552.597-.552 1.062 0 .597.354.945.92.945.609 0 1.246-.305 1.685-.814V7.77zm.184 3.84l-.127-.844c-.708.611-1.515.99-2.421.99-1.232 0-1.996-.786-1.996-2.052 0-.974.41-1.629 1.217-2.095.736-.421 1.869-.697 3.2-.96.085-1.018-.255-1.44-1.204-1.44-.75 0-1.246.32-1.656.99l-1.232-.786c.651-1.12 1.685-1.542 3.001-1.542 1.898 0 2.775.858 2.775 2.648v3.723l.128 1.368h-1.685zm7.497 0V6.606c0-.844-.354-1.222-1.02-1.222-.495 0-.99.218-1.627.844v5.382h-1.713V4.046h1.585v.93c.793-.741 1.544-1.105 2.421-1.105.85 0 1.444.335 1.77.931.212.378.311.873.311 1.804v5.004h-1.727z" mask="url(#f)"/>
            <mask id="h" fill="#fff">
                <use xlink:href="#g"/>
            </mask>
            <path fill="#000" fill-rule="nonzero" d="M106.198 11.61l-1.813-3.564-1.104 1.295v2.269h-1.699V1.165h1.7v6.138h.027l2.478-3.257h1.939l-2.18 2.603 2.506 4.96z" mask="url(#h)"/>
            <mask id="j" fill="#fff">
                <use xlink:href="#i"/>
            </mask>
            <path fill="#000" fill-rule="nonzero" d="M108.914 11.61h1.713V4.046h-1.713v7.564zm-.043-8.772h1.813V1.064h-1.813v1.774zm7.723 8.772V6.606c0-.844-.354-1.222-1.02-1.222-.495 0-.99.218-1.627.844v5.382h-1.714V4.046h1.586v.93c.793-.741 1.543-1.105 2.42-1.105.85 0 1.445.335 1.77.931.213.378.312.873.312 1.804v5.004h-1.727zm5.945-6.43c-.877 0-1.373.553-1.373 1.368 0 .843.496 1.352 1.373 1.352.878 0 1.374-.509 1.374-1.352 0-.815-.496-1.368-1.374-1.368zm-.438 6.183c-.68.116-1.289.392-1.289.93 0 .553.722.83 1.798.83 1.09 0 1.94-.277 1.94-.873 0-.727-.906-.858-2.45-.887zm.438-2.299c-.396 0-.736-.043-1.061-.116-.199.116-.354.29-.354.48 0 1.09 5.082-.51 5.082 2.545 0 1.63-1.585 2.313-3.723 2.313-1.911 0-3.242-.552-3.242-1.745 0-.699.41-1.164 1.203-1.44v-.03c-.623-.16-.878-.552-.878-1.076 0-.581.368-1.076.991-1.469-.637-.45-.962-1.164-.962-2.051 0-1.455 1.076-2.604 2.944-2.604.864 0 1.558.248 2.053.655.41-.437.977-.757 1.628-.757v1.47a2.58 2.58 0 0 0-.962.16c.155.334.226.698.226 1.076 0 1.556-1.048 2.59-2.945 2.59z" mask="url(#j)"/>
        </g>
        <path fill="#004893" d="M61.508.654a.721.721 0 0 0-.714.727v22.254c0 .406.321.727.714.727h3.182c.387 0 .71-.319.71-.722l-.002-22.257c0-.4-.321-.729-.712-.729h-3.178M17.63 12.618a30.235 30.235 0 0 0-.035-.968c0-3.357-2.626-6.152-5.92-6.319a129.29 129.29 0 0 0-2.813-.067h-.008c-.897.004-2.713.061-2.859.067C2.707 5.498.069 8.293.069 11.65c-.016.274-.03.712-.038.968 0 .068-.031 1.778-.031 2.197v.002c0 .42.031 2.131.031 2.2.008.254.022.692.038.969 0 3.354 2.638 6.151 5.926 6.316.146.009 1.962.057 2.859.06h1.186a.734.734 0 0 0 .697-.716v-3.152-.007a.734.734 0 0 0-.703-.727H8.838c-.678 0-1.894-.009-2.479-.059-.949-.055-1.699-.86-1.699-1.826a65.46 65.46 0 0 1-.055-3.058c0-1.157.01-2.061.055-3.072 0-.966.75-1.772 1.699-1.826.585-.051 1.801-.06 2.479-.06.672 0 1.887.009 2.474.06.942.054 1.703.86 1.703 1.826.037 1.011.049 1.915.049 3.072l-.001 8.833a.73.73 0 0 0 .701.718h3.186a.733.733 0 0 0 .705-.733v-.002c.006-2.225.009-8.67.009-8.816v-.002c0-.419-.031-2.129-.034-2.197M57.092 12.618a21.808 21.808 0 0 0-.035-.968c0-3.357-2.626-6.152-5.919-6.319a129.7 129.7 0 0 0-2.816-.067h-.007c-.898.004-2.714.061-2.859.067-3.287.167-5.927 2.962-5.927 6.319-.017.274-.03.712-.035.968-.003.068-.03 1.778-.03 2.197v.002c0 .42.027 2.131.03 2.2.005.254.018.692.035.969 0 3.354 2.64 6.151 5.927 6.316.145.009 1.961.057 2.859.06h1.184a.73.73 0 0 0 .697-.716v-3.152-.007a.728.728 0 0 0-.702-.727h-1.195c-.677 0-1.894-.009-2.478-.059-.95-.055-1.702-.86-1.702-1.826a68.33 68.33 0 0 1-.055-3.058c0-1.157.012-2.061.055-3.072 0-.966.752-1.772 1.702-1.826.584-.051 1.801-.06 2.478-.06.671 0 1.889.009 2.474.06.947.054 1.702.86 1.702 1.826.039 1.011.055 1.915.055 3.072 0 .28 0 6.652-.004 8.833a.728.728 0 0 0 .702.718h3.185a.73.73 0 0 0 .703-.733v-.002h.003l.009-8.816v-.002c0-.419-.032-2.129-.036-2.197"/>
        <g transform="translate(69 5)">
            <mask id="l" fill="#fff">
                <use xlink:href="#k"/>
            </mask>
            <path fill="#004893" d="M.066 9.813c0 .419.035 2.128.035 2.2.004.251.018.694.034.967 0 3.357 2.629 6.153 5.925 6.317.144.008 1.922.062 2.811.065h.011c.893-.003 2.71-.057 2.855-.065 3.29-.164 5.925-2.96 5.925-6.317.019-.273.035-.716.037-.967.003-.072.033-1.781.033-2.2 0-.423-.03-2.129-.033-2.197a19.428 19.428 0 0 0-.037-.973c0-3.352-2.635-6.15-5.925-6.315C11.592.319 9.775.264 8.882.261h-.011C7.982.264 6.204.319 6.06.328 2.764.493.135 3.291.135 6.643c-.016.276-.03.716-.034.973 0 .068-.035 1.774-.035 2.197zm6.353-4.894c.585-.054 1.804-.06 2.477-.06.677 0 1.894.006 2.477.06.949.051 1.701.857 1.701 1.826.041 1.01.055 1.909.055 3.068 0 1.157-.014 2.047-.055 3.06 0 .963-.752 1.773-1.701 1.826-.583.049-1.8.057-2.477.057-.673 0-1.892-.008-2.477-.057-.944-.053-1.698-.863-1.698-1.826a66.954 66.954 0 0 1-.055-3.06c0-1.159.011-2.058.055-3.068 0-.969.754-1.775 1.698-1.826zM38.578 7.618a27.62 27.62 0 0 0-.036-.968c0-3.354-2.626-6.152-5.922-6.319-.149-.006-1.925-.063-2.812-.067h-.013c-.894.004-2.712.061-2.856.067-3.29.167-5.928 2.965-5.928 6.319a33.26 33.26 0 0 0-.032.968 165.4 165.4 0 0 0-.035 2.197v.002c0 .42.031 2.131.035 2.2.005.254.017.695.032.969 0 3.354 2.638 6.151 5.928 6.316.144.009 1.962.057 2.856.06h1.188a.732.732 0 0 0 .697-.716l.004-3.152v-.007a.735.735 0 0 0-.705-.727h-1.197c-.676 0-1.894-.007-2.477-.059-.951-.052-1.701-.86-1.701-1.824a66.943 66.943 0 0 1-.056-3.06c0-1.155.012-2.061.056-3.072 0-.966.75-1.772 1.701-1.826.583-.051 1.801-.06 2.477-.06.672 0 1.888.009 2.475.06.945.054 1.701.86 1.701 1.826.039 1.011.052 1.917.052 3.072 0 .28 0 11.282-.003 13.468a.735.735 0 0 0 .704.715h3.186a.733.733 0 0 0 .704-.732v-.002h.002l.007-13.449v-.002c0-.419-.032-2.129-.032-2.197" mask="url(#l)"/>
        </g>
        <path fill="#004893" d="M37.317 5.484h-3.345c-.459 0-.81.128-.939.481l-4.447 11.946-4.453-11.946c-.132-.353-.483-.481-.941-.481h-3.348c-.277 0-.737.307-.472.956l7.12 17.474a.724.724 0 0 0 .664.455h2.85a.717.717 0 0 0 .665-.455l7.12-17.474c.268-.649-.192-.956-.474-.956"/>
    </g>
</svg>
